<svg width="29" height="29" viewBox="0 0 29 29" fill="none" xmlns="http://www.w3.org/2000/svg">
<path d="M28.7354 23.2978L19.9375 14.4999L28.7354 5.70204C28.8305 5.60688 28.8985 5.49632 28.9429 5.37851C29.0634 5.05588 28.9945 4.67979 28.7354 4.4206L24.5793 0.26454C24.3201 0.00535257 23.9431 -0.0626162 23.6214 0.0570088C23.5036 0.100509 23.393 0.169384 23.2979 0.263634L14.5 9.06151L5.7021 0.263634C5.60694 0.169384 5.49638 0.100509 5.37857 0.0570088C5.05594 -0.0635224 4.67985 0.00535257 4.42066 0.26454L0.264601 4.4206C0.00541361 4.67979 -0.0625551 5.05679 0.0570699 5.37851C0.101476 5.49632 0.169445 5.60688 0.264601 5.70204L9.06248 14.4999L0.264601 23.2978C0.170351 23.3929 0.101476 23.5035 0.0570699 23.6213C-0.0634614 23.943 0.00541361 24.32 0.264601 24.5792L4.42066 28.7353C4.67985 28.9945 5.05685 29.0624 5.37857 28.9428C5.49638 28.8984 5.60694 28.8304 5.7021 28.7353L14.5 19.9374L23.2979 28.7353C23.393 28.8304 23.5036 28.8984 23.6214 28.9428C23.944 29.0634 24.3201 28.9945 24.5793 28.7353L28.7354 24.5792C28.9945 24.32 29.0634 23.943 28.9429 23.6213C28.8985 23.5035 28.8305 23.3929 28.7354 23.2978Z" fill="#CB0505"/>
</svg>
